<svg width="29" height="18" viewBox="0 0 29 18" fill="none" xmlns="http://www.w3.org/2000/svg">
<path fill-rule="evenodd" clip-rule="evenodd" d="M20.1979 17.1935C24.9699 17.1935 28.8383 13.3711 28.8383 8.65594C28.8383 3.94079 24.9699 0.118393 20.1979 0.118393C18.0592 0.118393 16.102 0.886185 14.5932 2.15803C13.0844 0.886191 11.1272 0.118404 8.98852 0.118404C4.21657 0.118404 0.348145 3.9408 0.348145 8.65596C0.348145 13.3711 4.21657 17.1935 8.98852 17.1935C11.1272 17.1935 13.0844 16.4257 14.5932 15.1539C16.102 16.4257 18.0593 17.1935 20.1979 17.1935Z" fill="#ED0006"/>
<path fill-rule="evenodd" clip-rule="evenodd" d="M14.593 15.1541C16.4509 13.5881 17.6289 11.258 17.6289 8.65594C17.6289 6.0539 16.4509 3.72374 14.593 2.15779C16.1018 0.886085 18.0589 0.118385 20.1975 0.118385C24.9694 0.118385 28.8378 3.94078 28.8378 8.65594C28.8378 13.3711 24.9694 17.1935 20.1975 17.1935C18.0589 17.1935 16.1018 16.4258 14.593 15.1541Z" fill="#F9A000"/>
<path fill-rule="evenodd" clip-rule="evenodd" d="M14.5933 15.1539C16.451 13.5879 17.629 11.2579 17.629 8.65594C17.629 6.05401 16.451 3.72393 14.5933 2.15799C12.7356 3.72393 11.5576 6.05401 11.5576 8.65594C11.5576 11.2579 12.7356 13.5879 14.5933 15.1539Z" fill="#FF5E00"/>
</svg>
