<svg width="18" height="23" viewBox="0 0 18 23" fill="none" xmlns="http://www.w3.org/2000/svg">
<path d="M8 22.33C7.53 22.33 7.09 22.15 6.76 21.81L5.1 20.14C5.01 20.05 4.87 20.04 4.77 20.12L3.05 21.4C2.52 21.8 1.82 21.87 1.22 21.57C0.62 21.27 0.25 20.67 0.25 20V5C0.25 1.98 1.98 0.25 5 0.25H17C17.41 0.25 17.75 0.59 17.75 1C17.75 1.41 17.41 1.75 17 1.75C16.31 1.75 15.75 2.31 15.75 3V20C15.75 20.67 15.38 21.27 14.78 21.57C14.18 21.87 13.48 21.81 12.95 21.41L11.24 20.13C11.14 20.05 11 20.07 10.92 20.15L9.24 21.83C8.91 22.15 8.47 22.33 8 22.33ZM4.91 18.57C5.37 18.57 5.82 18.74 6.16 19.09L7.82 20.76C7.88 20.82 7.96 20.83 8 20.83C8.04 20.83 8.12 20.82 8.18 20.76L9.86 19.08C10.48 18.46 11.46 18.4 12.15 18.93L13.85 20.2C13.96 20.28 14.06 20.25 14.11 20.22C14.16 20.19 14.25 20.13 14.25 20V3C14.25 2.55 14.36 2.12 14.55 1.75H5C2.78 1.75 1.75 2.78 1.75 5V20C1.75 20.14 1.84 20.2 1.89 20.23C1.95 20.26 2.05 20.28 2.15 20.2L3.86 18.92C4.17 18.69 4.54 18.57 4.91 18.57Z" fill="#667085"/>
</svg>
